/* XPM */
static char *result[] = {
/* columns rows colors chars-per-pixel */
"64 64 177 2 ",
"   c #000000",
".  c #040C01",
"X  c #0B0C04",
"o  c #160604",
"O  c #1D0B06",
"+  c #0F1501",
"@  c #0F1903",
"#  c #131607",
"$  c #1C1712",
"%  c #200C07",
"&  c #28080C",
"*  c #32140A",
"=  c #361E0A",
"-  c #221D18",
";  c #122303",
":  c #1B2301",
">  c #1D3307",
",  c #222C02",
"<  c #263104",
"1  c #293504",
"2  c #2C3803",
"3  c #29320B",
"4  c #323B07",
"5  c #2F2923",
"6  c #362F27",
"7  c #3A342B",
"8  c #4E240E",
"9  c #53220F",
"0  c #512D0F",
"q  c #5F2610",
"w  c #662A11",
"e  c #6E2D13",
"r  c #722F14",
"t  c #683912",
"y  c #7F3417",
"u  c #743814",
"i  c #40392F",
"p  c #463E33",
"a  c #2A4D0C",
"s  c #364307",
"d  c #33570F",
"f  c #464F0D",
"g  c #425209",
"h  c #4A5C0B",
"j  c #4F4C13",
"k  c #555C10",
"l  c #604011",
"z  c #7C4616",
"x  c #6D5615",
"c  c #53670F",
"v  c #55690E",
"b  c #586E0D",
"n  c #5B720E",
"m  c #576617",
"M  c #5C6F11",
"N  c #467618",
"B  c #4B7E19",
"V  c #5E7411",
"C  c #606E13",
"Z  c #786F18",
"A  c #657C12",
"S  c #6B7815",
"D  c #414326",
"F  c #484034",
"G  c #4D4539",
"H  c #59553F",
"J  c #704D3D",
"K  c #63732B",
"L  c #636D33",
"P  c #554D40",
"I  c #645A4A",
"U  c #833718",
"Y  c #8D3B1A",
"T  c #923E1B",
"R  c #8E441A",
"E  c #8E4C1B",
"W  c #9C431E",
"Q  c #825918",
"!  c #A0441F",
"~  c #93482D",
"^  c #A74621",
"/  c #A34C27",
"(  c #AC4A22",
")  c #B54D24",
"_  c #BB4D26",
"`  c #BD5226",
"'  c #BD542B",
"]  c #BD5731",
"[  c #BD5936",
"{  c #BC5C3B",
"}  c #BC5E40",
"|  c #BC6246",
" . c #BC654A",
".. c #BD6C55",
"X. c #BE6F59",
"o. c #BE725D",
"O. c #877865",
"+. c #897C67",
"@. c #897B69",
"#. c #BF7A68",
"$. c #C0745F",
"%. c #4E861B",
"&. c #528B1D",
"*. c #58971F",
"=. c #698211",
"-. c #6E8913",
";. c #738D16",
":. c #788919",
">. c #759116",
",. c #7C9917",
"<. c #7A9718",
"1. c #7B9718",
"2. c #599920",
"3. c #738B23",
"4. c #7A912C",
"5. c #778837",
"6. c #819E1B",
"7. c #85A31A",
"8. c #88A61B",
"9. c #8DAD1C",
"0. c #8FB11B",
"q. c #92B41C",
"w. c #95B81D",
"e. c #85983D",
"r. c #88A623",
"t. c #86855C",
"y. c #8E8568",
"u. c #92846F",
"i. c #969863",
"p. c #958672",
"a. c #9D8E79",
"s. c #A2826C",
"d. c #A79D7A",
"f. c #C58776",
"g. c #C48B7D",
"h. c #AF9E86",
"j. c #B5A28A",
"k. c #B6A789",
"l. c #BEAB91",
"z. c #C69287",
"x. c #C8968A",
"c. c #CA9A8F",
"v. c #CEA59C",
"b. c #C7B398",
"n. c #CDB99D",
"m. c #CFA8A1",
"M. c #D1ABA5",
"N. c #D2AEA8",
"B. c #D5B2AB",
"V. c #D6B7B2",
"C. c #D9BBB4",
"Z. c #DABEB9",
"A. c #D3C19F",
"S. c #DDC7A9",
"D. c #DDC8A9",
"F. c #DBC1BB",
"G. c #E3CCAE",
"H. c #E5CFB0",
"J. c #ECD5B5",
"K. c #F3DCBB",
"L. c #DEC6C1",
"P. c #E0C9C3",
"I. c #E3CECA",
"U. c #E9DAD8",
"Y. c #FBE3C1",
"T. c #FFEAC7",
"R. c #FFEDCA",
"E. c #FFF1CE",
"W. c #EEE2E0",
"Q. c #F0E7E5",
"!. c #F2E9E7",
"~. c #F4EDEB",
"^. c #F6F0EF",
"/. c #F7F3F3",
"(. c #FAF6F5",
"). c #FAF8F7",
"_. c #FEFDFD",
/* pixels */
"w.w.w.w.w.w.w.w.w.w.w.w.w.w.w.w.w.w.w.w.w.w.w.w.w.w.w.w.w.w.w.w.w.w.w.w.w.w.w.w.w.w.w.w.w.w.w.w.w.w.w.w.w.w.w.w.w.w.w.w.w.w.w.w.",
"w.w.w.w.w.w.w.w.w.w.w.w.w.w.w.w.w.w.w.w.w.w.w.w.w.w.w.w.w.w.w.w.w.w.w.w.w.w.w.w.w.w.w.w.w.w.w.w.w.w.w.w.w.w.w.w.w.w.w.w.w.w.w.w.",
"w.w.w.w.w.w.w.w.w.w.w.w.w.w.w.w.w.w.w.w.w.w.w.w.w.w.w.w.w.w.w.w.w.w.w.w.w.w.w.w.w.w.w.w.w.w.w.w.w.w.w.w.w.w.w.w.w.w.w.w.w.w.w.w.",
"w.w.w.w.w.w.w.w.w.w.w.w.w.w.w.w.w.w.w.w.w.w.w.w.w.w.w.w.w.w.w.w.w.w.w.w.w.w.w.w.w.w.w.w.w.w.w.w.w.w.w.w.w.w.w.w.w.w.w.w.w.w.w.w.",
"w.w.w.w.w.w.w.w.w.w.w.w.w.w.2.2.2.2.2.2.w.w.w.w.w.w.w.w.w.w.w.w.w.w.w.w.w.w.w.w.w.w.w.w.w.w.w.w.w.w.w.w.w.w.w.w.w.w.w.w.w.w.w.w.",
"w.w.w.w.w.w.w.w.w.w.w.w.w.w.2.2.*.*.2.2.w.w.w.w.w.w.w.w.w.w.0.0.0.0.0.0.0.0.0.0.0.0.0.0.0.0.0.0.0.0.q.w.w.w.w.w.w.w.w.w.w.w.w.w.",
"w.w.w.w.w.w.w.w.w.w.w.w.w.w.2.2.*.*.*.*.w.w.w.w.w.w.w.w.w.q.A 1 2 2 2 2 2 2 2 2 2 2 2 2 2 2 2 2 2 2 V 9.w.w.w.w.w.w.w.w.w.w.w.w.",
"w.w.w.w.w.w.w.w.w.w.w.w.w.w.w.w.w.w.w.w.w.w.w.w.w.w.w.w.w.w.n                                       M 8.w.w.w.w.w.w.w.w.w.w.w.w.",
"w.w.w.w.w.w.w.w.w.w.w.w.w.w.w.w.w.w.w.w.w.w.w.w.w.w.q.q.q.9.M * * * * * * * * * * * * * * * * * * * C 8.q.q.q.w.w.w.w.w.w.w.w.w.",
"w.w.w.w.w.w.w.w.w.w.w.w.w.w.w.w.w.w.w.w.w.w.w.w.w.w.6.n h k E ^ ^ ^ ^ ^ ^ ^ ^ ^ ^ ^ ^ ^ ^ ^ ^ ^ ^ ^ R j a d %.2.w.w.w.w.w.w.w.w.",
"w.w.w.w.w.w.w.2.2.2.2.2.2.w.w.w.w.w.w.w.w.w.w.w.w.w.6.g X = W ` ` ` ` _ _ ` ` ` ` ` ) _ ` ` ` _ ` ` W 8 . > B 2.*.w.w.w.w.w.w.w.",
"w.w.w.w.w.w.w.2.2.2.2.2.2.w.w.w.w.w.w.w.w.w.w.w.w.w.1.f % = ! ` ` [ | | | | | | { ` ` ] } | | [ ` ` W 9 O 3 B 2.*.w.w.w.w.w.w.w.",
"w.w.w.w.w.w.w.2.2.2.2.2.2.w.w.w.w.w.w.w.w.w.w.7.;.>.Z Q y U ^ ` _ g.N.C.V.V.V.V.z.{ ` #.M.V.V.g.` ` ( Y y z m N N 7.q.w.w.w.w.w.",
"w.w.w.w.w.w.w.w.w.w.w.w.w.w.w.w.w.w.w.w.w.w.w.A # , u ! ` _ ` ` _ B.^._.).)._._.F.| _ x.W._._.B._ ` ` ) ) ) u , : -.q.w.w.w.w.w.",
"w.w.w.w.w.w.w.w.w.w.w.w.w.w.w.w.w.w.w.w.w.w.w.A     r ! ` ` ` ` _ V./._._._._._.L. ._ c.Q._._.B._ ` ` ` ` ) r     =.0.w.w.w.w.w.",
"w.w.w.w.w.w.w.w.w.w.w.w.w.w.w.w.w.w.w.q.q.0.0.S = * y ) ` ' ..o.X.V.^.(.).).).).Z. ._ x.U.).).B._ ` ` ` ` ) r     =.0.w.w.w.w.w.",
"w.w.w.w.w.w.w.w.w.w.w.w.w.w.w.w.w.w.w.7.v 1 2 R _ ) _ ` ` ..I.(./.P.f.$.$.$.$.$.$.` ` ' $.$.$.$._ ` ` ` ` ) r     =.q.w.w.w.w.w.",
"w.w.w.w.w.w.w.w.w.w.w.w.w.w.w.w.w.w.w.7.h     T ` ` ` ` ` o.U._._.J.$.` ` ` ` ` ` ` ` ` _ ` ` ` _ ` ` ` ` ) r     =.0.w.w.w.w.w.",
"w.w.w.w.w.w.w.w.w.w.w.w.w.w.w.w.w.w.w.7.h     T _ ` ' $.| #.U._._.P.$.` ` ` ` ` ` ` ` ` _ ` ` ` ` ` ` ` ` ) r     =.q.w.w.w.w.w.",
"w.w.w.w.w.w.w.w.w.w.w.w.w.w.w.w.w.w.w.7.h     T _ _ f.C.L.L.F.C.C.c.{ ` ` ` ` ` ` ` ` ` ` ` ` ` ` ` ` ` ` ) r     =.0.w.w.w.w.w.",
"w.w.w.w.w.w.w.w.w.w.w.w.w.w.w.w.q.q.q.7.h o   T ` ` v.!._./.N.{ | { ` ` ` ` ` ` ` ` ` ` ` ` ` ` ` ` ` ` ` _ r     =.q.w.w.w.w.w.",
"w.w.w.w.w.w.w.w.w.w.w.w.w.w.w.w.9.r.,.:.x e w ^ ` _ v.~._.(.N._ ` ` ` ` ` ` ` ` ` ` ` ` ` ` ` ` ` ` ` ` ` ) r     =.0.w.w.w.w.w.",
"w.w.w.w.w.w.w.w.w.w.w.w.w.w.w.w.-.s < t ^ ) ) ` ` _ v.~._.(.M._ ` ` ` ` ` ` ` ` ` ` ` ` ` ` ` ` ` ` ` ` ` ) r     =.0.w.w.w.w.w.",
"w.w.w.w.w.w.w.w.w.w.w.w.w.w.w.w.-.,   q ^ ` ` ` ` _ m.~._.).M._ ` ` ` ` ` ` ` ` ` ` ` ` ` ` ` ` ` ` ` ` ` ) r     =.0.w.w.w.w.w.",
"w.w.w.w.w.w.w.w.w.w.w.w.w.w.w.w.-.,   q ^ ` ` ` ` ` v.Q.).^.M._ ` ` ` ` ` ` ` ` ` ` ` ` ` ` ` ` ` ` ` ` ` ) r     =.0.w.w.w.w.w.",
"w.w.w.w.w.w.w.w.w.w.w.w.w.w.w.w.-.,   q ( ` ` ` ` ' $.g.x.z.$._ ` ` ` ` ` ` ` ` ` ` ` ` ` ` ` ` ` ` ` ` ` ) r     =.0.w.w.w.w.w.",
"w.w.w.w.w.w.w.w.w.w.w.w.w.w.w.w.-.,   w ^ ` ` ` ` ` ` ] [ [ ' ` ` ` ` ` ` ` ` ` ` ` ` ` ` ` ` ` ` ` ` ` ` ) r     =.0.w.w.w.w.w.",
"w.w.w.w.w.w.w.w.w.w.w.w.w.w.w.w.-.,   q ( ` ` ` ` ` ` ` ` ` ` ` ` ` ` ` ` ` ' ` ` ` ` ` ` ` ` ` ` ` ` ` ` ) r     =.q.w.w.w.w.w.",
"w.w.w.w.w.w.w.w.w.w.w.w.w.w.w.w.-.,   q ^ ` ` ` ` ` ` ` ` ` ` ` ` ` ` ` ` ` ` ` ` ` ` ` ` ` ` ` ` ` ` ` ` ) r     =.q.w.w.w.w.w.",
"w.w.w.w.w.w.w.w.w.w.w.w.w.w.w.w.-.,   q ^ ' ` ` ` ` ` ` ` ` ` ` ` ` ` ` ` ` ` ` ` ` ` ` ` ` ` ` ` ` ` ` ` ) r     =.0.w.w.w.w.w.",
"w.w.w.w.w.w.w.w.w.w.w.w.w.w.w.w.-.<   q ^ ` ` ` ` ` ` ` ` ` ` ` ` ` ` ` ` ` ` ` ` ` ` ` ` ` ` ` ` ` ` ` ` ) r     =.0.w.w.w.w.w.",
"w.w.w.w.w.w.w.w.w.w.w.w.w.w.w.w.-.,   q ^ ` ` ` ` ` ` ` ` ` ` ` ` ` ` ` ` ` ` ` ` ` ` ` ` ` ` ` ` ` ` ` ` ) r     =.q.w.w.w.w.w.",
"w.w.w.w.w.w.w.w.w.w.w.w.w.w.w.w.-.;   w ( ' ` ` ` ` ` ` ` ` ` ` ` ` ` ` ` ` ` ` ` ` ` ` ` ` ` ` ` ` ` ) _ ( z < , -.0.w.w.w.w.w.",
"w.w.w.w.w.w.w.w.w.w.w.w.w.w.w.w.-.;   q ! ` ` ` ` ` ' ` ` ` ` ` ` ` ` ` ` ` ` ` ` ` ` ` ` ` ` ` ` ` ! r q l ;.7.7.9.w.w.w.w.w.w.",
"w.w.w.w.w.w.w.w.w.w.w.w.w.w.w.w.-.;   q ( ` ` ` ` ` ` ` ` ` ` ` ` ` ` ` ` ` ` ` ` ` ` ` ` ` ` ` ` ` ! 9   4 1.w.w.w.w.w.w.w.w.w.",
"w.w.w.w.w.w.w.w.w.w.w.w.w.w.w.w.-.;   w ( ` ` ` ` ` ` ` ` ` ` ` ` ` ` ` ` ` ` ` ` ` ` ` ` ` ` ` ` ` W 0 : s ,.w.w.w.w.w.w.w.w.w.",
"w.w.w.w.w.w.w.w.w.w.w.w.w.w.w.w.-.,   w ^ ` ` ` ` ` ` ` ` ` ` ` ` ` ` ` ` ` ` ` ` ` ` ` ` ` ` ! Y Y Q S A =.8.w.w.w.w.w.w.w.w.w.",
"w.w.w.w.w.w.w.w.w.w.w.w.w.w.w.w.-.,   q / ` ` ` ` ` ` ` ` ` ` ` ` ` ` ` ` ` ` ` ` ` ` ` ` ` ` U O % M 8.q.w.w.w.w.w.w.w.w.w.w.w.",
"w.w.w.w.w.w.w.w.w.w.w.w.w.w.w.w.-.,   q ( ` ` ` ` ` ` ` ` ` ` ` ` ` ` ` ` ` ` ` ` ` ` ` ` ` ` y     n 9.w.w.w.w.w.w.w.w.w.w.w.w.",
"w.w.w.w.w.w.w.w.w.w.w.w.q.q.q.q.5.H P J / ) ) ` ` ` ` ` ` ` ` ` ` ` ` ` ` ` ` ` ` ` _ ) ) ) ) z 2 2 A 8.w.w.w.w.w.w.w.w.w.w.w.w.",
"w.w.w.w.w.w.w.w.w.w.w.w.9.V 3 2 k.Y.T.G.O.& * T ` ` ` ` ` ` ` ` ` ` ` ` ` ` ` ` ` T 9 * * * = :.q.q.q.w.w.w.w.w.w.w.w.w.w.w.w.w.",
"w.w.w.w.w.w.w.w.w.w.w.w.q.m     l.T.E.J.+.    T ` ` ` ` ` ` ` ` ` ` ` ` ` ` ` ` ` T *         :.*.2.*.2.2.2.2.w.w.w.w.w.w.w.w.w.",
"w.w.w.w.w.q.q.q.q.q.q.q.r.K 7 6 b.R.E.J.u.7 i ~ _ ) ) _ ` ` _ ) ) ` ` ` ) ` ) ` _ R 0 : : ; @ N *.2.2.2.2.2.*.w.w.w.w.w.w.w.w.w.",
"w.w.w.w.q.>.A A A A A =.5.k.A.n.J.R.E.Y.G.n.n.s.y y y U y y y y y y U U U y y y y Z -.>.;.N N &.2.2.2.2.2.2.*.w.w.w.w.w.w.w.w.w.",
"w.w.w.w.q.V @ : : : : : I D.R.R.R.E.E.E.T.R.E.j.  O % % % % O O % % O % % % % % O S q.q.w.2.2.2.2.2.w.w.w.w.w.w.w.w.w.w.w.w.w.w.",
"w.w.w.w.r.n     $ 5 - $ I D.E.E.E.E.E.E.R.R.R.j.+ + + + + + + + @ @ + + + + + +   A r.w.w.w.w.w.w.w.w.w.w.w.w.w.w.w.w.w.w.w.w.w.",
"w.w.w.w.0.b     I I @.@.h.H.E.E.E.E.E.T.K.J.J.d.h h h h h h h h h h h h h h h h h ;.q.w.w.w.w.w.w.w.w.w.w.w.w.w.w.w.w.w.w.w.w.w.",
"w.w.w.w.9.b     j.Y.T.T.R.R.E.E.E.E.E.K.p.F G 4.q.0.0.q.q.q.q.q.q.0.q.0.q.q.0.0.0.q.w.w.w.w.w.w.w.w.w.w.w.w.w.w.w.w.w.w.w.w.w.w.",
"w.w.w.w.0.b     l.T.E.E.E.E.E.E.E.E.E.J.@.    >.w.w.w.w.w.w.w.w.w.w.w.w.w.w.w.w.w.w.w.w.w.w.w.w.w.w.w.w.w.w.w.w.w.w.w.w.w.w.w.w.",
"w.w.w.w.9.n     l.T.E.E.E.E.E.E.R.R.R.G.@., , <.w.w.w.w.w.w.w.w.w.w.w.w.w.w.w.w.w.w.w.w.w.w.w.w.w.w.w.w.w.w.w.w.w.w.w.w.w.w.w.w.",
"w.w.w.w.0.n : , k.Y.R.R.E.E.E.E.S.a.u.y.e.7.,.r.w.w.w.w.w.w.w.w.w.w.w.w.w.w.w.w.w.w.w.w.w.w.w.w.w.w.w.w.w.w.w.w.w.w.w.w.w.w.w.w.",
"w.w.w.w.q.,.>.>.i.j.j.n.Y.E.E.E.n.P $ m 7.w.w.w.w.w.w.w.w.w.w.w.w.w.w.w.w.w.w.w.w.w.w.w.w.w.w.w.w.w.w.w.w.w.w.w.w.w.w.w.w.w.w.w.",
"w.w.w.w.w.q.q.w.3.D 5 u.J.E.E.E.b.p   h 8.w.w.w.w.w.w.w.w.w.w.w.w.w.w.w.w.w.w.w.w.w.w.w.w.w.w.w.w.w.w.w.w.w.w.w.w.w.w.w.w.w.w.w.",
"w.w.w.w.w.w.w.w.-.< + O.J.R.E.E.b.p   h 7.w.w.w.w.w.w.w.w.w.w.w.w.w.w.w.w.w.w.w.w.w.w.w.w.w.w.w.w.w.w.w.w.w.w.w.w.w.w.w.w.w.w.w.",
"w.w.w.w.w.w.w.w.<.c h t.A.J.J.J.h.7   h 7.w.w.w.w.w.w.w.w.w.w.w.w.w.w.w.w.2.2.2.2.2.2.2.2.2.w.w.w.w.w.w.w.w.w.w.w.w.w.w.w.w.w.w.",
"w.w.w.w.w.w.w.w.q.0.0.r.L G G G 7 X   h 7.w.w.w.w.w.w.w.w.w.w.w.w.w.w.w.2.2.2.2.2.2.2.2.2.2.w.w.w.w.w.w.w.w.w.w.w.w.w.w.w.w.w.w.",
"w.w.w.w.w.w.w.w.w.w.w.7.h             h 7.q.w.w.w.w.w.w.w.w.w.w.w.w.w.w.2.2.2.2.2.2.2.2.2.2.w.w.w.w.w.w.w.w.w.w.w.w.w.w.w.w.w.w.",
"w.w.w.w.w.w.w.w.w.w.w.8.v 2 2 2 2 2 2 c 8.w.w.w.w.w.w.w.w.w.w.w.w.w.w.w.2.2.2.2.w.w.w.w.w.w.w.w.w.w.w.w.w.w.w.w.w.w.w.w.w.w.w.w.",
"w.w.w.w.w.w.w.w.w.w.w.w.q.0.0.0.0.0.q.q.q.w.w.w.w.w.w.w.w.w.w.w.w.w.w.w.w.w.w.w.w.w.w.w.w.w.w.w.w.w.w.w.w.w.w.w.w.w.w.w.w.w.w.w.",
"w.w.w.w.w.w.w.w.w.w.w.w.w.w.w.w.w.w.w.w.w.w.w.w.w.w.w.w.w.w.w.w.w.w.w.w.w.w.w.w.w.w.w.w.w.w.w.w.w.w.w.w.w.w.w.w.w.w.w.w.w.w.w.w.",
"w.w.w.w.w.w.w.w.w.w.w.w.w.w.w.w.w.w.w.w.w.w.w.w.w.w.w.w.w.w.w.w.w.w.w.w.w.w.w.w.w.w.w.w.w.w.w.w.w.w.w.w.w.w.w.w.w.w.w.w.w.w.w.w.",
"w.w.w.w.w.w.w.w.w.w.w.w.w.w.w.w.w.w.w.w.w.w.w.w.w.w.w.w.w.w.w.w.w.w.w.w.w.w.w.w.w.w.w.w.w.w.w.w.w.w.w.w.w.w.w.w.w.w.w.w.w.w.w.w.",
"w.w.w.w.w.w.w.w.w.w.w.w.w.w.w.w.w.w.w.w.w.w.w.w.w.w.w.w.w.w.w.w.w.w.w.w.w.w.w.w.w.w.w.w.w.w.w.w.w.w.w.w.w.w.w.w.w.w.w.w.w.w.w.w.",
"w.w.w.w.w.w.w.w.w.w.w.w.w.w.w.w.w.w.w.w.w.w.w.w.w.w.w.w.w.w.w.w.w.w.w.w.w.w.w.w.w.w.w.w.w.w.w.w.w.w.w.w.w.w.w.w.w.w.w.w.w.w.w.w."
};
