/* XPM */
static char *result[] = {
/* columns rows colors chars-per-pixel */
"64 64 184 2 ",
"   c black",
".  c #010101",
"X  c #020202",
"o  c #040404",
"O  c #07040B",
"+  c gray6",
"@  c #0B0713",
"#  c #140D1E",
"$  c #151515",
"%  c #1B1B1B",
"&  c gray11",
"*  c #132803",
"=  c #273203",
"-  c #283403",
";  c #2A3703",
":  c #150E20",
">  c #171024",
",  c #1C1329",
"<  c #231624",
"1  c #2E1A31",
"2  c #2D1939",
"3  c gray13",
"4  c #252525",
"5  c gray15",
"6  c gray16",
"7  c #2A2A2A",
"8  c gray18",
"9  c #2F2F2F",
"0  c #322F34",
"q  c #313131",
"w  c #323232",
"e  c #343434",
"r  c gray21",
"t  c #3A3A3A",
"y  c #3C3C3C",
"u  c gray24",
"i  c #3F3F3F",
"p  c #396412",
"a  c #3B422F",
"s  c #455708",
"d  c #576D0D",
"f  c #5B720E",
"g  c #5C720E",
"h  c #5C730E",
"j  c #5B7117",
"k  c #61790F",
"l  c #627A0F",
"z  c #627A10",
"x  c #667F11",
"c  c #5A6D28",
"v  c #5D6F31",
"b  c #55613B",
"n  c #351C43",
"m  c #371C42",
"M  c #361D42",
"N  c #371E43",
"B  c #371D45",
"V  c #3D1F4A",
"C  c #3D2146",
"Z  c #4E2F4C",
"A  c #4E2F4D",
"S  c #4F304E",
"D  c #492457",
"F  c #4D2859",
"G  c #51285E",
"H  c #51285F",
"J  c #52285F",
"K  c #463653",
"L  c #543454",
"P  c #59355D",
"I  c #542D60",
"U  c #552F61",
"Y  c #552C62",
"T  c #552A64",
"R  c #582C67",
"E  c #5C2E6C",
"W  c #603A65",
"Q  c #623172",
"!  c #623273",
"~  c #643274",
"^  c #683579",
"/  c #69357B",
"(  c #6C377E",
")  c gray25",
"_  c #414141",
"`  c gray26",
"'  c #434343",
"]  c #444347",
"[  c #444444",
"{  c gray27",
"}  c gray28",
"|  c #484848",
" . c gray29",
".. c #4C4C4C",
"X. c gray30",
"o. c #53554F",
"O. c #575C4E",
"+. c #584D5B",
"@. c #505050",
"#. c #515151",
"$. c gray32",
"%. c #535353",
"&. c #555555",
"*. c gray34",
"=. c #585C51",
"-. c #5A5A5A",
";. c #5B5B5B",
":. c gray36",
">. c #5C5C5D",
",. c #5E5D5E",
"<. c gray37",
"1. c #5F5F5F",
"2. c #6C436A",
"3. c #7A4C7B",
"4. c #606060",
"5. c gray38",
"6. c #626262",
"7. c gray39",
"8. c #646464",
"9. c #656565",
"0. c gray40",
"q. c #676767",
"w. c #686868",
"e. c DimGray",
"r. c #767676",
"t. c #82527F",
"y. c #728E14",
"u. c #738E1A",
"i. c #759115",
"p. c #789415",
"a. c #7A9816",
"s. c #599920",
"d. c #738D22",
"f. c #83A318",
"g. c #85A519",
"h. c #86A619",
"j. c #8AAA1A",
"k. c #8DAE1B",
"l. c #90B11C",
"z. c #90B21C",
"x. c #91B31C",
"c. c #92B51C",
"v. c #94B61D",
"b. c #95B81D",
"n. c #6E3880",
"m. c #6E3881",
"M. c #703982",
"N. c #703983",
"B. c #713A83",
"V. c #713A84",
"C. c #723A85",
"Z. c #733B86",
"A. c #753C88",
"S. c #763C89",
"D. c #783E8B",
"F. c #783E8C",
"G. c #793E8C",
"H. c #7A3F8E",
"J. c #774384",
"K. c #7D468B",
"L. c #7B408F",
"P. c #7D4191",
"I. c #7E4191",
"U. c #7D4192",
"Y. c #7F4492",
"T. c #8A5787",
"R. c #8A568A",
"E. c #814891",
"W. c #824893",
"Q. c #844B94",
"!. c #955E91",
"~. c #965F92",
"^. c #915799",
"/. c #935B9A",
"(. c #945B9A",
"). c #975C9B",
"_. c #965D9B",
"`. c #9C6298",
"'. c #A569A2",
"]. c gray51",
"[. c gray52",
"{. c #929292",
"}. c gray66",
"|. c gray72",
/* pixels */
"b.b.b.b.b.b.b.b.b.b.b.b.b.b.b.b.b.b.b.b.b.b.b.b.b.b.b.b.b.b.b.b.b.b.b.b.b.b.b.b.b.b.b.b.b.b.b.b.b.b.b.b.b.b.b.b.b.b.b.b.b.b.b.b.",
"b.b.b.b.b.b.b.b.b.b.b.b.b.b.b.b.b.b.b.b.b.b.b.b.b.b.b.b.b.b.b.b.b.b.b.b.b.b.b.b.b.b.b.b.b.b.b.b.b.b.b.b.b.b.b.b.b.b.b.b.b.b.b.b.",
"b.b.b.b.b.b.b.b.b.b.b.b.b.b.b.b.b.b.b.b.b.b.b.b.b.b.b.b.b.b.b.b.b.b.b.b.b.b.b.b.b.b.b.b.b.b.b.b.b.b.b.b.b.b.b.b.b.b.b.b.b.b.b.b.",
"b.b.b.b.b.b.b.b.b.b.b.b.b.b.b.b.b.b.b.b.b.b.b.b.b.b.b.b.b.b.b.b.b.b.b.b.b.b.b.b.b.b.b.b.b.b.b.b.b.b.b.b.b.b.b.b.b.b.b.b.b.b.b.b.",
"b.b.b.b.b.b.b.b.b.b.b.b.b.b.s.s.s.s.s.s.b.b.b.b.b.b.b.k               h.b.b.b.b.b.b.b.b.b.b.b.b.b.b.b.b.b.b.b.b.b.b.b.b.b.b.b.b.",
"b.b.b.b.b.b.b.b.b.b.b.b.b.b.s.s.s.s.s.s.b.b.b.b.; - - o...) 0.0.0.  <.a - - x b.b.b.b.b.b.b.b.b.b.b.b.b.b.b.b.b.b.b.b.b.b.b.b.b.",
"b.b.b.b.b.b.b.b.b.b.b.b.b.b.s.s.s.s.s.s.b.j.s s   &.<.9.8.@.) 8.8 1.w.5.<._ ; s g b.b.b.b.b.b.b.b.b.b.b.b.b.b.b.b.b.b.b.b.b.b.b.",
"b.b.b.b.b.b.b.b.b.b.b.b.b.b.b.b.b.b.b.b.g.c &.&.&.[ 4.e.e.6.#.` &.e.e.e.%...&.&.O.g b.b.b.b.b.b.b.b.b.b.b.b.b.b.b.b.b.b.b.b.b.b.",
"b.b.b.b.b.b.b.b.b.b.b.b.b.b.b.b.b.b.b.f.v *.e.e.e.*.| [ [ [ u $ [ [ [ [ X.1.e.e.9.$.z c.b.b.b.b.b.b.b.b.b.b.b.b.b.b.b.b.b.b.b.b.",
"b.b.b.b.b.b.b.b.b.b.b.b.b.b.b.b.b.b.f.h u e.e.e.e.*.6 L W H H I 2.J H , ) 1.e.e.9.$.' u.l.b.b.b.s.s.s.s.s.s.s.s.b.b.b.b.b.b.b.b.",
"b.b.b.b.b.b.b.s.s.s.s.s.s.b.b.b.b.g.v u } ;.w.*.*.K D R.(.U.U.W.'.U.U.R P +.*.*.$.u e._ d.k.b.b.s.s.s.s.s.s.s.s.s.b.b.b.b.b.b.b.",
"b.b.b.b.b.b.b.s.s.s.s.s.s.b.b.b.b.f $.e.;.y ,.A M Z.U._.(.U.U.W.'.U.U.U._.3.m 2 8 e.e.e.9 a.b.b.s.s.s.s.s.s.s.s.s.b.b.b.b.b.b.b.",
"b.b.b.b.b.b.b.s.s.s.s.s.s.b.b.b.c.j %.e.w.>.1 '.I.U.U._.(.U.U.W.'.U.U.U._.^.U.m.0 q.e.e.9 p.v.b.s.s.s.b.b.b.s.s.s.b.b.b.b.b.b.b.",
"b.b.b.b.b.b.b.b.b.b.b.b.b.b.b.b.s &.e.e.*.n Y.'.I.U.U._.(.U.U.W.'.U.U.U._.^.U.U.V.. e.e.9   i.b.b.b.b.b.b.b.b.b.b.b.b.b.b.b.b.b.",
"b.b.b.b.b.b.b.b.b.b.b.b.b.b.b.b.s &.e.e.*.n Y.'.I.U.U._.(.U.U.W.'.U.U.U._.^.U.U.V.. e.% <.i i.b.b.b.b.b.b.b.b.b.b.b.b.b.b.b.b.b.",
"b.b.b.b.b.b.b.b.b.b.b.b.b.b.b.b.s 4 *.*.K Z.Y.'.I.U.U._.(.U.U.W.'.U.U.U._.^.U.U.E.~.9 :.q.i i.b.b.b.b.b.b.b.b.b.b.b.b.b.b.b.b.b.",
"b.b.b.b.b.b.b.b.b.b.b.b.b.b.b.d =.-.| 7 D U.Y.'.I.U.U._.(.U.U.W.'.U.U.U._.^.U.U.Q.'.  0.e.4.b y.b.b.b.b.b.b.b.b.b.b.b.b.b.b.b.b.",
"b.b.b.b.b.b.b.b.b.b.b.b.b.b.b.= <.e.[ V ( U.Y.'.I.U.U._.(.U.U.W.'.U.U.U._.^.U.U.Q.'.! ] 7.e.[ l b.b.b.b.b.b.b.b.b.b.b.b.b.b.b.b.",
"b.b.b.b.b.b.b.b.b.b.b.b.b.b.b.= <.e.[ H U.U.Y.'.I.U.U._.(.U.U.W.'.U.U.U._.^.U.U.Q.'.U.> <.e.[ l b.b.b.b.b.b.b.b.b.b.b.b.b.b.b.b.",
"b.b.b.b.b.b.b.b.b.b.b.b.b.b.b.= <.e.[ H U.U.Y.'.I.U.U._.(.U.U.W.'.U.U.U._.^.U.U.Q.'.U.> <.e.[ l b.b.b.b.b.b.b.b.b.b.b.b.b.b.b.b.",
"b.b.b.b.b.b.b.b.b.b.b.b.b.b.b.= &.<.u H U.U.Y.'.I.U.U._.(.U.U.W.'.U.U.U._.^.U.U.Q.'.U.> &.<.u l b.b.b.b.b.b.b.b.b.b.b.b.b.b.b.b.",
"b.b.b.b.b.b.b.b.b.b.b.b.b.b.b.= 3 4 $ H U.U.Y.'.I.U.U._.(.U.U.W.'.U.U.U._.^.U.U.Q.'.U.> 3 4 $ l b.b.b.b.b.b.b.b.b.b.b.b.b.b.b.b.",
"b.b.b.b.b.b.b.b.b.b.b.b.b.b.b.= <.e.[ H U.U.Y.'.I.U.U._.(.U.U.W.'.U.U.U._.^.U.U.Q.'.U.> <.e.[ l b.b.b.b.b.b.b.b.b.b.b.b.b.b.b.b.",
"b.b.b.b.b.b.b.b.b.b.b.b.b.b.b.= <.e.[ H U.U.Y.'.I.U.U._.(.U.U.W.'.U.U.U._.^.U.U.Q.'.U.> <.e.[ l b.b.b.b.b.b.b.b.b.b.b.b.b.b.b.b.",
"b.b.b.b.b.b.b.b.b.b.b.b.b.b.b.= <.e.[ H U.U.Y.'.I.U.U._.(.U.U.W.'.U.U.U._.^.U.U.Q.'.U.> <.e.[ l b.b.b.b.b.b.b.b.b.b.b.b.b.b.b.b.",
"b.b.b.b.b.b.b.b.b.b.b.b.b.b.b.= <.e.[ H U.U.Y.'.I.U.U._.(.U.U.W.'.U.U.U._.^./ B C S B O <.e.[ l b.b.b.b.b.b.b.b.b.b.b.b.b.b.b.b.",
"b.b.b.b.b.b.b.b.b.b.b.b.b.b.b.= y ' 7 H U.U.Y.'.I.U.U._.(.U.U.W.'.U.U.U._.^.! ..[.X {.5 y ' 7 l b.b.b.b.b.b.b.b.b.b.b.b.b.b.b.b.",
"b.b.b.b.b.b.b.b.b.b.b.b.b.b.b.= { X.q H U.U.Y.'.I.U.U._.(.U.U.W.'.U.U.U._.^.! ' r.X ].3 { X.q l b.b.b.b.b.b.b.b.b.b.b.b.b.b.b.b.",
"b.b.b.b.b.b.b.b.b.b.b.b.b.b.b.= <.e.[ H U.U.Y.'.I.U.U._.(.U.U.W.'.U.U.U._.^.n.H U 2.H @ <.e.[ l b.b.b.b.b.b.b.b.b.b.b.b.b.b.b.b.",
"b.b.b.b.b.b.b.b.b.b.b.b.b.b.b.= <.e.[ H U.U.Y.'.I.U.U._.(.U.U.W.'.U.U.U._.^.U.U.Q.'.U.> <.e.[ l b.b.b.b.b.b.b.b.b.b.b.b.b.b.b.b.",
"b.b.b.b.b.b.b.b.b.b.b.b.b.b.b.= <.e.[ H U.U.Y.'.I.U.U._.(.U.U.W.'.U.U.U._.^.U.U.Q.'.U.> <.e.[ l b.b.b.b.b.b.b.b.b.b.b.b.b.b.b.b.",
"b.b.b.b.b.b.b.b.b.b.b.b.b.b.b.= <.e.[ H U.U.Y.'.I.U.U._.(.U.U.W.'.U.U.U._.^.U.U.Q.'.U.> <.e.[ l b.b.b.b.b.b.b.b.b.b.b.b.b.b.b.b.",
"b.b.b.b.b.b.b.b.b.b.b.b.b.b.b.=       H U.U.Y.'.I.U.U._.(.U.U.W.'.U.U.U._.^.U.U.Q.'.U.>       l b.b.b.b.b.b.b.b.b.b.b.b.b.b.b.b.",
"b.b.b.b.b.b.b.b.b.b.b.b.b.b.b.= ;.0.` H U.U.Y.'.I.U.U._.(.U.U.W.'.U.U.U._.^.U.U.Q.'.U.> ;.0.` l b.b.b.b.b.b.b.b.b.b.b.b.b.b.b.b.",
"b.b.b.b.b.b.b.b.b.b.b.b.b.b.b.= <.e.[ H U.Z.N Z M n M._.(.U.U.W.'.U.U.U._.^.U.U.Q.'.U.> <.e.[ l b.b.b.b.b.b.b.b.b.b.b.b.b.b.b.b.",
"b.b.b.b.b.b.b.b.b.b.b.b.b.b.b.= <.e.[ H U.G.~     E D._.(.U.U.W.'.U.U.U._.^.U.U.Q.'.U.> <.e.[ l b.b.b.b.b.b.b.b.b.b.b.b.b.b.b.b.",
"b.b.b.b.b.b.b.b.b.b.b.b.b.b.b.= <.e.[ H U.S.Y t.Q T Z._.(.U.U.W.'.U.U.U._.^.U.U.Q.'.U.> <.e.[ l b.b.b.b.b.b.b.b.b.b.b.b.b.b.b.b.",
"b.b.b.b.b.b.b.b.b.b.b.b.b.b.b.=  .$.e H U.B.< '.I.n ( _.(.U.U.W.'.U.U.U._.^.U.U.Q.'.U.>  .$.e l b.b.b.b.b.b.b.b.b.b.b.b.b.b.b.b.",
"b.b.b.b.b.b.b.b.b.b.b.b.b.b.b.= r u 5 H U.A.F T.^ G C._.(.U.U.W.'.U.U.U._.^.U.U.Q.'.U.> r u 5 l b.b.b.b.b.b.b.b.b.b.b.b.b.b.b.b.",
"b.b.b.b.b.b.b.b.b.b.b.b.b.b.b.= <.e.[ H U.U.L.A M Z.U._.(.U.U.W.'.U.U.U._.^.U.U.Q.'.U.> <.e.[ l b.b.b.b.b.b.b.b.b.b.b.b.b.b.b.b.",
"b.b.b.b.b.b.b.b.b.b.b.b.b.b.b.= <.e.[ H U.U.Y.'.I.U.U._.(.U.U.W.'.U.U.U._.^.U.U.Q.'.U.> <.e.[ l b.b.b.b.b.b.b.b.b.b.b.b.b.b.b.b.",
"b.b.b.b.b.b.b.b.b.b.b.b.b.b.b.= <.e.[ H U.U.Y.'.I.U.U._.(.U.U.W.'.U.U.U._.^.U.U.Q.'.U.> <.e.[ l s.s.s.s.s.s.s.b.b.b.b.b.b.b.b.b.",
"b.b.b.b.b.b.b.b.b.b.b.b.b.b.b.= <.e.[ H U.U.Y.'.I.U.U._.(.U.U.W.'.U.U.U._.^.U.U.Q.'.U.> <.e.[ p s.s.s.s.s.s.s.b.b.b.b.b.b.b.b.b.",
"b.b.b.b.b.b.b.b.b.b.b.b.b.b.b.= 6 9 & H U.U.Y.'.I.U.U._.(.U.U.W.'.U.U.U._.^.U.U.Q.'.U.> 6 9 & p s.s.s.s.s.s.s.b.b.b.b.b.b.b.b.b.",
"b.b.b.b.b.b.b.b.b.b.b.b.b.b.b.= #.-.t H U.U.Y.'.I.U.U._.(.U.U.W.'.U.U.U._.^.U.U.Q.'.U.> #.-.t p s.s.b.b.b.b.b.b.b.b.b.b.b.b.b.b.",
"b.b.b.b.b.b.b.b.b.b.b.b.b.b.b.= <.e.[ H U.U.Y.'.I.U.U._.(.U.U.W.'.U.U.U._.^.U.U.Q.'.U.> <.e.[ l b.b.b.b.b.b.b.b.b.b.b.b.b.b.b.b.",
"b.b.b.b.b.b.b.b.b.b.b.b.b.b.b.= <.e.[ H U.U.Y.'.I.U.U._.(.U.U.W.'.U.U.U._.^.U.U.Q.'.U.> <.e.[ l b.b.b.b.b.b.b.b.b.b.b.b.b.b.b.b.",
"b.b.b.b.b.b.b.b.b.b.b.b.b.b.b.= <.e.[ H U.U.Y.'.I.U.U._.(.U.U.W.'.U.U.U._.^.U.U.Q.'.U.> <.e.[ l b.b.b.b.b.b.b.b.b.b.b.b.b.b.b.b.",
"b.b.b.b.b.b.b.b.b.b.b.b.b.b.b.= &.<.u H U.U.Y.'.I.U.U._.(.U.U.W.'.U.U.U._.^.U.U.Q.'.U.> &.<.u l b.b.b.b.b.b.b.b.b.b.b.b.b.b.b.b.",
"b.b.b.b.b.b.b.b.b.b.b.b.b.b.b.= 3 4 $ H U.U.Y.'.I.U.U._.(.U.U.W.'.U.U.U._.^.H.A.K.`.A.: 3 4 $ l b.b.b.b.b.b.b.b.b.b.b.b.b.b.b.b.",
"b.b.b.b.b.b.b.b.b.b.b.s.s.s.s.* <.e.[ H U.U.Y.'.I.U.U._.(.U.U.W.'.U.U.U._.^.!           <.e.[ l b.b.b.b.b.b.b.b.b.b.b.b.b.b.b.b.",
"b.b.b.b.b.b.b.b.b.b.b.s.s.s.s.* <.e.[ H U.U.Y.'.I.U.U._.(.U.U.W.'.U.U.U._.^.! 5.}.o |.w <.e.[ l b.b.b.b.b.b.b.b.b.b.b.b.b.b.b.b.",
"b.b.b.b.b.b.b.b.b.b.b.s.s.s.s.* <.e.[ H U.U.Y.'.I.U.U._.(.U.U.W.'.U.U.U._.^.! 4 [ . ..+ <.e.[ l b.b.b.b.b.b.b.b.b.b.b.b.b.b.b.b.",
"b.b.b.b.b.b.b.b.b.b.b.s.s.s.b.= <.e.[ H U.U.Y.'.I.U.U._.(.U.U.W.'.U.U.U._.^.F.N.J.!.N.# <.e.[ l b.b.b.b.b.b.b.b.b.b.b.b.b.b.b.b.",
"b.b.b.b.b.b.b.b.b.b.b.b.b.b.b.= y ' 7 H U.U.Y.'.I.U.U._.(.U.U.W.'.U.U.U._.^.U.U.Q.'.U.> y ' 7 l b.b.b.b.b.b.b.b.b.b.b.b.b.b.b.b.",
"b.b.b.b.b.b.b.b.b.b.b.b.b.b.b.= { X.q H U.U.Y.'.I.U.U._.(.U.U.W.'.U.U.U._.^.U.U.Q.'.U.> { X.q l b.b.b.b.b.b.b.b.b.b.b.b.b.b.b.b.",
"b.b.b.b.b.b.b.b.b.b.b.b.b.b.b.= <.e.[ H U.U.Y.'.I.U.U._.(.U.U.W.'.U.U.U._.^.U.U.Q.'.U.> <.e.[ l b.b.b.b.b.b.b.b.b.b.b.b.b.b.b.b.",
"b.b.b.b.b.b.b.b.b.b.b.b.b.b.b.= <.e.[ H U.U.Y.'.I.U.U._.(.U.U.W.'.U.U.U._.^.U.U.Q.'.U.> <.e.[ l b.b.b.b.b.b.b.b.b.b.b.b.b.b.b.b.",
"b.b.b.b.b.b.b.b.b.b.b.b.b.b.b.= <.e.[ H U.U.Y.'.I.U.U._.(.U.U.W.'.U.U.U._.^.U.U.Q.'.U.> <.e.[ l b.b.b.b.b.b.b.b.b.b.b.b.b.b.b.b.",
"b.b.b.b.b.b.b.b.b.b.b.b.b.b.b.= <.e.[ H U.U.Y.'.P.U.U.)./.U.U.W.'.U.U.U._.^.U.U.Q.'.U.> <.e.[ l b.b.b.b.b.b.b.b.b.b.b.b.b.b.b.b.",
"b.b.b.b.b.b.b.b.b.b.b.b.b.b.b.=                                                               l b.b.b.b.b.b.b.b.b.b.b.b.b.b.b.b.",
"b.b.b.b.b.b.b.b.b.b.b.b.b.b.b.x.z.z.z.z.z.z.z.z.z.z.z.z.z.z.z.z.z.z.z.z.z.z.z.z.z.z.z.z.z.z.z.c.b.b.b.b.b.b.b.b.b.b.b.b.b.b.b.b.",
"b.b.b.b.b.b.b.b.b.b.b.b.b.b.b.b.b.b.b.b.b.b.b.b.b.b.b.b.b.b.b.b.b.b.b.b.b.b.b.b.b.b.b.b.b.b.b.b.b.b.b.b.b.b.b.b.b.b.b.b.b.b.b.b.",
"b.b.b.b.b.b.b.b.b.b.b.b.b.b.b.b.b.b.b.b.b.b.b.b.b.b.b.b.b.b.b.b.b.b.b.b.b.b.b.b.b.b.b.b.b.b.b.b.b.b.b.b.b.b.b.b.b.b.b.b.b.b.b.b."
};
