/* XPM */
static char *result[] = {
/* columns rows colors chars-per-pixel */
"64 64 248 2 ",
"   c #010101",
".  c #0C0904",
"X  c #0D0B0A",
"o  c #090704",
"O  c #120E07",
"+  c #1A1305",
"@  c #171409",
"#  c #1C1711",
"$  c #1A1712",
"%  c #0D1103",
"&  c #3E0502",
"*  c #251B08",
"=  c #241D15",
"-  c #1C2407",
";  c #2A2508",
":  c #35280A",
">  c #323E0A",
",  c #3D340A",
"<  c #2C2D11",
"1  c #342D23",
"2  c #3C3226",
"3  c #292520",
"4  c #440C03",
"5  c #400701",
"6  c #4B1403",
"7  c #4B1404",
"8  c #521C04",
"9  c #541D09",
"0  c #521F16",
"q  c #492F07",
"w  c #422C08",
"e  c #572104",
"r  c #5A2504",
"t  c #5E2904",
"y  c #5B2609",
"u  c #4A3609",
"i  c #573705",
"p  c #583B0B",
"a  c #552914",
"s  c #622D07",
"d  c #653103",
"f  c #693605",
"g  c #6E3B0C",
"h  c #6A3708",
"j  c #713E03",
"k  c #713E0B",
"l  c #673615",
"z  c #473B2C",
"x  c #6A3E36",
"c  c #39460C",
"v  c #304B10",
"b  c #3C6616",
"n  c #45550E",
"m  c #504F0E",
"M  c #694609",
"N  c #7C4C03",
"B  c #75430D",
"V  c #764908",
"C  c #7F5003",
"Z  c #7B580C",
"A  c #7C4B12",
"S  c #764615",
"D  c #705214",
"F  c #556911",
"G  c #5C7113",
"H  c #647B14",
"J  c #76670F",
"K  c #5A4935",
"L  c #55442F",
"P  c #715032",
"I  c #675743",
"U  c #79584B",
"Y  c #6E564F",
"T  c #7A6851",
"R  c #6C655B",
"E  c #815202",
"W  c #885609",
"Q  c #945E04",
"!  c #985A0A",
"~  c #835215",
"^  c #8B5B19",
"/  c #865917",
"(  c #804E14",
")  c #9B6308",
"_  c #8E601C",
"`  c #93641E",
"'  c #96681F",
"]  c #93740C",
"[  c #A66B09",
"{  c #B97608",
"}  c #AF7109",
"|  c #875B2C",
" . c #976921",
".. c #9B6D22",
"X. c #956828",
"o. c #9C7026",
"O. c #9E722C",
"+. c #976C34",
"@. c #9A7436",
"#. c #8B6132",
"$. c #A0752E",
"%. c #AA762C",
"&. c #A27839",
"*. c #B07C2B",
"=. c #C87B06",
"-. c #D8760A",
";. c #EA7907",
":. c #845E4A",
">. c #86694C",
",. c #936D47",
"<. c #9A774A",
"1. c #8B7458",
"2. c #987A59",
"3. c #896D4D",
"4. c #A47B48",
"5. c #A57C50",
"6. c #9A7863",
"7. c #698215",
"8. c #599920",
"9. c #998A11",
"0. c #A78706",
"q. c #B68E10",
"w. c #95B81D",
"e. c #94B71D",
"r. c #ACA107",
"t. c #B88D2E",
"y. c #BFAB27",
"u. c #D98D04",
"i. c #D48A05",
"p. c #DC9605",
"a. c #CC8D0D",
"s. c #E88706",
"d. c #F48605",
"f. c #E79804",
"g. c #F69904",
"h. c #E58B15",
"j. c #D8AA08",
"k. c #CFB111",
"l. c #F4AD03",
"z. c #F8A804",
"x. c #FBB303",
"c. c #FCBC03",
"v. c #F5B907",
"b. c #EAB10E",
"n. c #C98D2F",
"m. c #D5B02D",
"M. c #EAB82B",
"N. c #E3AF32",
"B. c #FCC203",
"V. c #F9CA06",
"C. c #F9D804",
"Z. c #F1CE0C",
"A. c #FCE503",
"S. c #FCE902",
"D. c #FBE90D",
"F. c #FCEB15",
"G. c #D4C62E",
"H. c #EBD133",
"J. c #FBED28",
"K. c #FAEF36",
"L. c #CFC11A",
"P. c #A68347",
"I. c #A68459",
"U. c #B9945A",
"Y. c #B78F50",
"T. c #9B846A",
"R. c #9C8D78",
"E. c #A68966",
"W. c #B7946A",
"Q. c #B99A75",
"!. c #A99174",
"~. c #BEA579",
"^. c #BFB652",
"/. c #C69550",
"(. c #DBB948",
"). c #D5AA57",
"_. c #D0AB52",
"`. c #C39E74",
"'. c #C89F66",
"]. c #CAA46A",
"[. c #D9B26A",
"{. c #C2A474",
"}. c #C8A77A",
"|. c #D2AD7A",
" X c #D5B474",
".X c #FAF55C",
"XX c #FAF350",
"oX c #F5EB4C",
"OX c #DCC972",
"+X c #E1D06B",
"@X c #F9F367",
"#X c #EEE67C",
"$X c #F4EF74",
"%X c #AC9B8A",
"&X c #BBA89A",
"*X c #B7A388",
"=X c #CCAB84",
"-X c #C9AB87",
";X c #C7B088",
":X c #D4B38E",
">X c #D9BA8E",
",X c #D6B786",
"<X c #C2AC95",
"1X c #CAB597",
"2X c #D4B492",
"3X c #D8B794",
"4X c #DBBB94",
"5X c #D6BA9A",
"6X c #DBBD9C",
"7X c #D7B894",
"8X c #D2AE82",
"9X c #CCBBA7",
"0X c #D5BEA3",
"qX c #C4BFB5",
"wX c #DECE8C",
"eX c #DCC887",
"rX c #DCC19B",
"tX c #E1C095",
"yX c #E1C39C",
"uX c #E4D88F",
"iX c #F1ED8B",
"pX c #DDC3A3",
"aX c #D7C4A9",
"sX c #D7C9B5",
"dX c #DED1B8",
"fX c #E2C5A4",
"gX c #E5CBAD",
"hX c #E9CCAD",
"jX c #E3C7A8",
"kX c #E9CEB1",
"lX c #E3CDB4",
"zX c #E4D2BA",
"xX c #EDD5BA",
"cX c #EAD3B5",
"vX c #F0D6BA",
"bX c #F1D9BD",
"nX c #E7D7A5",
"mX c #F4EEB3",
"MX c #DDD3C2",
"NX c #E3D6C3",
"BX c #E6DAC9",
"VX c #E8DED1",
"CX c #F2DDC3",
"ZX c #EBE2D4",
"AX c #ECE6DC",
"SX c #F1E5D1",
"DX c #F4EEE4",
"FX c #F5F3EE",
/* pixels */
"w.w.w.w.w.w.w.w.w.w.w.w.w.w.w.w.w.w.w.w.w.w.w.w.w.w.w.w.w.w.w.w.w.w.w.w.w.w.w.w.w.w.w.w.w.w.w.w.w.w.w.w.w.w.w.w.w.w.w.w.w.w.w.w.",
"w.w.w.w.w.w.w.w.w.w.w.w.w.w.w.w.w.w.w.w.w.w.w.w.w.w.w.w.w.e.w.w.w.w.w.w.w.w.w.w.w.w.w.w.w.w.w.w.w.w.w.w.w.w.w.w.w.w.w.w.w.w.w.w.",
"w.w.w.w.w.w.w.w.w.w.w.w.w.w.w.w.w.w.w.w.w.w.w.w.w.w.w.w.e.e.e.e.w.w.w.w.w.w.w.w.w.w.w.w.w.w.w.w.w.w.w.w.w.w.w.w.w.w.w.w.w.w.w.w.",
"w.w.w.w.w.w.w.w.w.w.w.w.w.w.w.w.w.w.w.w.w.w.w.w.w.w.w.w.e.e.e.e.w.w.w.w.w.w.w.w.w.w.w.w.w.w.w.w.w.w.w.w.w.w.w.w.w.w.w.w.w.w.w.w.",
"w.w.w.w.w.w.w.w.w.w.w.w.w.w.8.8.8.8.8.8.w.w.e.e.F < %                               - n w.w.w.w.w.w.w.w.w.w.w.w.w.w.w.w.w.w.w.w.",
"w.w.w.w.w.w.w.w.w.w.w.w.w.w.8.8.8.8.8.8.w.w.w.7.                                  o o   n w.w.w.w.w.w.w.w.w.w.w.w.w.w.w.w.w.w.w.",
"w.w.w.w.w.w.w.w.w.w.w.w.w.w.8.8.8.8.8.8.F c <   # z I T >.T 3.9.9.r.r.r.r.r.r.r.r.9.J % ; > F w.w.w.w.w.w.w.w.w.w.w.w.w.w.w.w.w.",
"w.w.w.w.w.w.w.w.w.w.w.w.w.w.w.w.w.w.G c X @ = = 2 P 2.I.I.I.I.Y.m.k.L.k.L.G.G.G.G.y.9., ; + O n G w.w.w.w.w.w.w.w.w.w.w.w.w.w.w.",
"w.w.w.w.w.w.w.w.w.w.w.w.w.w.w.w.G v X X 3 z z L I 1.W.`.`.`.].).(.G.H.H.K.oX@X@X@XoXm.H F m : +   n G e.e.e.e.e.w.w.w.w.w.w.w.w.",
"w.w.w.w.w.w.w.w.w.w.w.w.w.G c @ o X = 2 K U 1.2.E.Q.`.=X}.|.}.|.[._._.(.+XiXmXmXmXiX+X_.t.9.Z u * o   v b 8.8.8.w.w.w.w.w.w.w.w.",
"w.w.w.w.w.w.w.8.8.8.8.8.v X @ 3 2 K I 1.R.*X<X1X9XaXgXaXjXfXfXyXeX,XOXOXeXnXbXCXSXmXmXuXOX_.y.] D u ; @ o b 8.8.8.w.w.w.w.w.w.w.",
"w.w.w.w.w.w.w.8.8.8.8.v X $ 2 K 1.R.*X<XpXdXNXNXVXVXVXVXCXNXNXCXxXdXsXsXgXlXgXgXdXZXZXBXjXOXH.m.a.[ D , @ . v b 8.w.w.w.w.w.w.w.",
"w.w.w.w.w.w.w.8.8.8.8.- @ 2 I R.9XMXVXVXNXqX<X<X&X&X&X&X<X<X1X0XVXDXAXAXSXVXCXNXxXdX0X1X`.U.n.N.b.b.q.] m : +   b w.w.w.w.w.w.w.",
"w.w.w.w.w.w.w.w.w.w.G o = K T.1XBXMXsX9X*X6.:.:.U U U :.,.,.2.6.&XsXsXaXsXBXZXAXSXaX-X-XW.U./.(.K.Z.b.r.0.Z , . n w.w.w.w.w.w.w.",
"w.w.w.w.w.w.w.w.w.w.v $ 2 T &XMXAX<X!.I.:.l 7 4 5 5 4 9 d d g S 3.6.T.I.!.0XVXDXZXaX;X~.}.}.].+X@XK.F.V.B.q.D % - w.w.w.w.w.w.w.",
"w.w.w.w.w.w.w.w.w.F X 1 T &XMXMX1X4._ ^ l 9 5 6 9 9 y s k k k k A A A P | 2.E.!.W.W.W.~.:X4X>XwX#X@XK.F.C.j.] , @ n w.w.w.w.w.w.",
"w.w.w.w.w.w.w.w.e.> $ R %XMXdX&XI.] N M r 6 4 8 s d k ( ( ~ ( ~ ~ ( ( ( ~ ` X.+.@.&.5.Q.:XyXyXtXwXiX@XJ.A.Z.q.F : O n e.w.w.w.w.",
"w.w.w.w.w.w.w.w.F X 3 R qXFXrXI._ Z N f 8 6 8 s j k ^ ` ' ' ' ' ' ' .. .X.'  ... ...&.5.{.6XyXrXwXiX$XoXF.C.b.0.M ; o F w.w.w.w.",
"w.w.w.w.w.w.w.w.v $ K %XMXMXW.+.C N M t 6 6 t k ~ ^ ' ..' ..........................o.&.W.=X4X4X>XuXiX.XF.D.Z.k.] M + > w.w.w.w.",
"w.w.w.w.w.w.w.w.- 2 T 1XqX&X@.Z C N f r 4 8 d ( ` ' ..........................o.......$.I.Q.2X2X>XeXiX@XK.D.C.v.j.J ; % H w.w.w.",
"w.w.w.w.w.w.w.w.  z R.2X*X2./ E E N j 8 6 9 g ^ ' ..........' ..............o.......o.O.4.W.=X:X,X,XuXiXXXF.A.C.j.0.m + n e.w.w.",
"w.w.w.w.w.w.w.7.  z E.Q.5.A Z N E j s 8 8 r k ^ ........................o.....o.........@.5.W.:XrX8XwXiX@XK.F.A.Z.a.Z : - e.w.w.",
"w.w.w.w.e.e.7.n X L E.5.X.B N E N d 8 6 6 s ( ^ ......................................X.X.@.5.=X7X,XeXuX$XXXF.S.C.j.] i   H w.w.",
"w.w.w.w.w.7.o X 3 I 5.| A V E E N d 8 4 6 h ^ ' ..........' ..............................X.4.W.:X4X7XwXiX.XJ.S.A.C.r.M o c H w.",
"w.w.w.w.e.n @ 1 R R.*X+.A N N N j r 6 4 8 k _ ' ' ..........................................O.W.:X6XeXwXiX@XK.D.A.C.j.J * ;   H ",
"w.w.w.w.F X 3 I R.&XaX,.( N E N j 8 4 4 8 k _ ' ............................................X.W.2X5XeXeXiX$XXXF.S.C.Z.] : :   c ",
"e.e.w.F   $ K T.1XsXaX,.~ E E N j 8 4 4 r k _ ' ' %...............o...o.....................O.U.:X6X,X;XiXiX.XF.S.C.Z.] u u   > ",
"e.e.e.> X L 1.<XMXaXW.P N E E N j 8 4 4 8 f ( ` ' .......................................... .4.W.2X7X,XuXiX.XF.S.A.C.0.u u   > ",
"e.w.w.- @ K !.sXAX9X<.A Z E E N j 6 5 5 8 s k ~ _ ` ^ _ _ _ ` ..........%...................` +.I.2X3X>XwX#X@XF.S.A.C.0.u w   > ",
"w.w.F o = I !.NXAXaX<.A N E E N j 8 5 5 6 r f k A V A A A ( ~  .' ' ........................` +.5.2X3X>XwX#X.XF.S.S.C.r.u n   > ",
"w.F X 1 I 2.-XZXFXaXP./ E E E N j r 4 5 5 6 8 s d f f f d j k k ( ( ` ' ......................&.U.:X3X>XwX#X.XF.S.S.A.0.u u   > ",
"w.v $ K 2.E.1XAXFXsXP.J E N N j d 6 4 5 5 4 4 8 8 8 r r 8 8 8 s s f ( ^ ^ ..................X.@.U.:X3X3XwX#X.XF.S.S.C.0.u u   > ",
"e.> * K 6.W.9XAXFXsXP.^ E E j s 7 5 & & 4 4 4 5 & & 4 6 4 & 4 4 8 r r s k ^ X.................4./.:X3X3XwXiX.XF.S.A.C.} q q   c ",
"e.> # K I.Q.1XBXFX9X<.( f d 8 6 4 6 6 8 t t y 8 9 9 t s s e 9 e 8 6 6 8 s y g S ( ( ^ '  .....&.W.:X3X:XwX#X.XF.S.A.C.0.q q   > ",
"e.> # K I.`.1XsXAX9X,.l r 8 4 6 6 8 t d g B B M g g S A A S M g s 8 6 6 7 7 9 y s g k ^ ^ ^ ` +.U.:X3X3XwX#X.XF.S.S.C.0.q q   > ",
"w.> # K E.-X5XaXZX9X3.a 4 & 4 6 t d f B / ` ' ' ' X.' ' X. .` ` ( g s s y 7 4 4 5 9 y s h g ( #.5.:X3X>XwX#X.XF.S.S.C.0.q q   > ",
"w.> = K E.=X2X5XdXsX%XP 0 8 8 t d B ( / ' ' ....' ' ...... . ...` ^ ~ ( S g s 9 7 7 7 7 6 9 a ,.W.2X3X>XeX$XXXF.S.A.C.0.q q   > ",
"w.> = K E.=X2X2XaXsX9X:.l s d d d B / ' ' ......o.....................` ^ ~ S g s y 9 7 7 0 x 6.-X3X:X:X+X+XK.D.S.A.C.0.q q   > ",
"e.> # K E.8X5X4X5X0X9X>.k s d s d k ~ ` ' ........o.........................' ^ ^ ( k y l P R.<X0X5X=X|.OXoXJ.D.S.C.V.} q q   > ",
"w.> * K 6.=X3X0X2X3X2X!.2.,.S g f j k ( _ ' ....................................` ` X.^ ,.!.9XsX0X6X=X}.eX$X@XJ.D.C.B.[ q q   > ",
"w.> # K E.`.2X0X5X2X:X<X-XQ.,.( k h g k ~ X.X...O.o.o.] o.o.o.o.%.o.o.o.$...o.o.o.@.t.I.{.aXBXlXpXyX8X].OXiX$XK.D.V.x.[ q q   c ",
"w.> * K I.Q.=X5XfX4X2X1X0XsX!.,.| S l k / X.$.$.O.O.O.P.O.O.O.O.O.O.@.%.$.$.$.$.&.Y.Q.~.sXZXAXsX2X7X=X{.eX#X.XF.C.V.z.[ q q   > ",
"w.> # K I.`.:X6XjXhXjXfX0X0X=XQ.!.E.5.5.W.~.}.}.}.}.{.{.{.~.~.~.}.-X-X-X-X;X;X;X;XaXdXNXSXAXNX0X-X=X`.'.+XoXK.Z.B.l.z.) w w   > ",
"w.> = L I.`.8X4XjXhXkXhXgX0X5X5X6X6X0X6XaXlXlXcXcXlXpX6XrXaXrXrXsXzXNXNXNXNXNXNXNXSXDXDXAXZXkX0X:X`.W.Y.N.H.F.V.l.g.u.W ; *   n ",
"e.c $ D t./.'.|.3XfXhXvXvXcXvXvXbXbXcXbXbXbXbXbXvXvXjX6X5X5X4X6XlXBXNXNXNXNXNXBXVXSXSXCXbXxXkXfX3XW.4.%.m.Z.v.z.g.d.=.h O X   H ",
"e.> # B =.n.*./.'.8X3XfXhXkXcXvXbXbXbXbXbXbXbXbXbXCXkXkXhXhXhXhXxXbXzXzXzXzXlXzXzXcXcXvXcXhXfX4X}.Y.%.} p.z.z.g.g.s.} i   n H w.",
"e.> * B -.;.;.*././.|.>X4XyXjXhXnXcXbXbXbXbXbXbXvXbXCXbXvXvXbXbXbXvXkXkXkXhXkXkXcXfXrXhXfX4X8X]./.%.{ -.g.g.g.g.d.u.) q   H w.w.",
"w.> # M } ;.;.h.h.n./.].|.=X4XyXjXkXcXcXbXxXbXcXvXvXvXvXvXvXvXvXxXxXvXvXvXvXvXvXcXpX7X4X|.]./.t.*.q.a.f.z.z.z.z.f.=.D ; ; w.w.w.",
"w.F . ; h [ -.;.d.h.N.N.).).[.[.|.>XtXtXtXyX6X6XfXjXhXhXkXkXhXhXhXhXhXhXhXjXrX4X>X}.'.t.t.n.n.a.h.j.l.l.z.g.g.g.i.) q O n w.w.w.",
"w.w.F o * E -.;.d.g.z.v.b.M.M.N.).[.[.[.|.|.|.}.|.>XtXtXtXyXtXtXtXtXtXtXtX,X|.]./.n.t.{ a.i.j.f.b.c.l.z.z.d.d.s.} M * o H w.w.w.",
"e.e.e.- O N =.;.d.d.g.x.c.B.v.M.M.M.M.N.).).).).).[.[.[. X[.[.[.[.[. X[.)._.n.t.t.a.a.u.f.v.c.c.B.x.g.g.g.g.g.=.W w % c w.w.w.w.",
"e.e.e.c . a ( =.;.;.g.z.x.c.c.B.v.v.Z.v.b.M.N.M.M.M.M.M.M.M.M.M.M.M.M.M.M.b.b.j.j.f.l.l.v.c.c.c.c.z.d.;.d.-.{ / p * o G w.w.w.w.",
"w.w.w.G o # a W } -.s.g.z.x.x.c.c.c.B.B.B.B.B.B.c.c.B.B.B.B.B.B.B.B.B.B.B.B.B.B.B.B.B.c.c.c.B.c.l.z.d.-.-.[ A q = X F w.w.w.w.w.",
"w.w.w.w.G o * w g ! =.s.g.z.z.x.x.c.c.c.c.c.B.c.B.B.B.B.B.B.B.B.B.B.B.B.B.B.B.B.B.B.B.c.c.c.x.x.z.g.f.=.[ g : X   F e.w.w.w.w.w.",
"w.w.w.w.e.F o + * y V ) { i.i.p.f.l.x.x.x.x.l.c.c.c.c.c.c.c.c.c.c.c.c.c.c.c.c.c.c.x.x.x.l.x.l.f.a.=.[ Z p : X > F e.w.w.w.w.w.w.",
"w.w.w.w.e.e.G c   O * u V W W ) { i.p.p.f.g.z.l.l.l.l.l.l.l.l.l.l.l.l.l.l.l.l.l.l.z.z.f.f.u.i.[ W V p < + o G e.w.e.w.w.w.w.w.w.",
"w.w.w.w.w.w.w.w.7.n o . O + + ; q M C E [ { u.u.u.u.u.u.u.u.u.u.u.u.u.u.u.u.u.u.u.i.i.} ) N M w * + . . c G e.w.w.w.w.w.w.w.w.w.",
"w.w.w.w.w.w.w.w.w.w.G c ; - - . + * : : p N Q Q Q Q Q Q Q Q Q Q Q ) Q Q Q Q Q Q Q Q W M q ; * O - + c F w.w.w.w.w.w.w.w.w.w.w.w.",
"w.w.w.w.w.w.w.w.w.w.w.w.w.w.e.G c > < o * w i i i i i i i i i i i i i i i i i i i i q : + o < F e.e.w.w.w.w.w.w.w.w.w.w.w.w.w.w.",
"w.w.w.w.w.w.w.w.w.w.w.w.w.w.w.w.e.e.e.G                                                   H w.w.w.w.w.w.w.w.w.w.w.w.w.w.w.w.w.w.",
"w.w.w.w.w.w.w.w.w.w.w.w.w.w.w.w.w.w.w.w.H c > > > > > > > > > > > > > > > > > > > > c n H w.w.w.w.w.w.w.w.w.w.w.w.w.w.w.w.w.w.w.",
"w.w.w.w.w.w.w.w.w.w.w.w.w.w.w.w.w.w.w.w.w.w.w.w.w.w.w.w.w.w.e.w.e.w.w.w.w.w.w.e.w.w.e.w.w.w.w.w.w.w.w.w.w.w.w.w.w.w.w.w.w.w.w.w.",
"w.w.w.w.w.w.w.w.w.w.w.w.w.w.w.w.w.w.w.w.w.w.w.w.w.w.w.w.w.w.w.w.w.w.w.w.w.w.w.w.w.w.w.w.w.w.w.w.w.w.w.w.w.w.w.w.w.w.w.w.w.w.w.w.",
"w.w.w.w.w.w.w.w.w.w.w.w.w.w.w.w.w.w.w.w.w.w.w.w.w.w.w.w.w.w.w.w.w.w.w.w.w.w.w.w.w.w.w.w.w.w.w.w.w.w.w.w.w.w.w.w.w.w.w.w.w.w.w.w."
};
