/* XPM */
static char *result[] = {
/* columns rows colors chars-per-pixel */
"64 64 187 2 ",
"   c black",
".  c #0D1D02",
"X  c #201919",
"o  c #211A1A",
"O  c #231B1B",
"+  c #261D1D",
"@  c #1C2502",
"#  c #1E2702",
"$  c #212B02",
"%  c #232121",
"&  c #242222",
"*  c #2B2222",
"=  c #2E2323",
"-  c #292727",
";  c #2E2424",
":  c #2F2929",
">  c #312B2B",
",  c #332C2C",
"<  c #332D2D",
"1  c #363030",
"2  c #3A3434",
"3  c #3D3535",
"4  c #3F3838",
"5  c #413434",
"6  c #423535",
"7  c #453737",
"8  c #453F31",
"9  c #423E3E",
"0  c #4D3D3D",
"q  c #4D3E3E",
"w  c #264709",
"e  c #27470A",
"r  c #27480A",
"t  c #2D510C",
"y  c #455608",
"u  c #455708",
"i  c #465808",
"p  c #4A5D09",
"a  c #45511A",
"s  c #45511C",
"d  c #4F630A",
"f  c #5C720E",
"g  c #5D730E",
"h  c #467A17",
"j  c #497F19",
"k  c #454D21",
"l  c #464E21",
"z  c #45412F",
"x  c #5D673F",
"c  c #517339",
"v  c #444040",
"b  c #454141",
"n  c #484242",
"m  c #484444",
"M  c #494545",
"N  c #4A4646",
"B  c #4B4747",
"V  c #4C4747",
"C  c #4F4A4A",
"Z  c #4F4B4B",
"A  c #504A4A",
"S  c #544B4B",
"D  c #504C4C",
"F  c #534F4F",
"G  c #544D4D",
"H  c #544F4F",
"J  c #5A4F4F",
"K  c #575252",
"L  c #5B5151",
"P  c #5E5353",
"I  c #5F5353",
"U  c #595454",
"Y  c #595555",
"T  c #5B5656",
"R  c #5E5555",
"E  c #5F5555",
"W  c #5E5959",
"Q  c #605555",
"!  c #615555",
"~  c #605656",
"^  c #615A5A",
"/  c #645858",
"(  c #645959",
")  c #655A5A",
"_  c #625C5C",
"`  c #635E5E",
"'  c #675C5C",
"]  c #665D5D",
"[  c #645F5F",
"{  c #655F5F",
"}  c #6A5F5F",
"|  c #5A6340",
" . c #656060",
".. c #666060",
"X. c #666161",
"o. c #6A6060",
"O. c #6D6262",
"+. c #6A6565",
"@. c #6D6464",
"#. c #706666",
"$. c #736969",
"%. c #746A6A",
"&. c #7B7171",
"*. c #7B7272",
"=. c #7D7474",
"-. c #837C7C",
";. c #847C7C",
":. c #877E7E",
">. c #867F7F",
",. c #877F7F",
"<. c #887F7F",
"1. c #4A8119",
"2. c #4B821A",
"3. c #4E871B",
"4. c #508A1C",
"5. c #528E1D",
"6. c #54901E",
"7. c #69811B",
"8. c #718B19",
"9. c #779315",
"0. c #799616",
"q. c #7C9916",
"w. c #7C9A16",
"e. c #7E9C17",
"r. c #7F9D17",
"t. c #7F9E17",
"y. c #4F8028",
"u. c #599920",
"i. c #7D9927",
"p. c #748B30",
"a. c #748B31",
"s. c #778F30",
"d. c #809E17",
"f. c #81A018",
"g. c #82A018",
"h. c #82A118",
"j. c #83A318",
"k. c #84A318",
"l. c #84A419",
"z. c #85A519",
"x. c #86A619",
"c. c #87A619",
"v. c #88A81A",
"b. c #89AA1A",
"n. c #8AAA1A",
"m. c #8EB01B",
"M. c #90B21C",
"N. c #95B81D",
"B. c #84807B",
"V. c #A2798F",
"C. c #A97E94",
"Z. c #E64EB5",
"A. c #E64EB6",
"S. c #DA62AF",
"D. c #D46AAD",
"F. c #DA62B0",
"G. c #878080",
"H. c #898282",
"J. c #8B8484",
"K. c #8C8585",
"L. c #8E8686",
"P. c #8F8686",
"I. c #8E8787",
"U. c #8F8787",
"Y. c #8F8888",
"T. c #918989",
"R. c #928989",
"E. c #918A8A",
"W. c #928A8A",
"Q. c #928B8B",
"!. c #938C8C",
"~. c #948C8C",
"^. c #958D8D",
"/. c #968E8E",
"(. c #989090",
"). c #999191",
"_. c #9A9292",
"`. c #9B9393",
"'. c #9C9494",
"]. c #9D9595",
"[. c #9E9696",
"{. c #AA8E9B",
"}. c #AC8D9B",
"|. c #AF8B9D",
" X c #B2899E",
".X c #B785A0",
"XX c #B786A0",
/* pixels */
"N.N.N.N.N.N.N.N.N.N.N.N.N.N.N.N.N.N.N.N.N.N.N.N.N.N.N.N.N.N.N.N.N.N.N.N.N.N.N.N.N.N.N.N.N.N.N.N.N.N.N.N.N.N.N.N.N.N.N.N.N.N.N.N.",
"N.N.N.N.N.N.N.N.N.N.N.N.N.N.N.N.N.N.N.N.N.N.N.N.N.N.N.N.N.N.N.N.N.N.N.N.N.N.N.N.N.N.N.N.N.N.N.N.N.N.N.N.N.N.N.N.N.N.N.N.N.N.N.N.",
"N.N.N.N.N.N.N.N.N.N.N.N.N.N.N.N.N.N.N.N.N.N.N.N.N.N.N.N.N.N.N.N.N.N.N.N.N.N.N.N.N.N.N.N.N.N.N.N.N.N.N.N.N.N.N.N.N.N.N.N.N.N.N.N.",
"N.N.N.N.N.N.N.N.N.N.N.N.N.N.N.N.N.N.N.N.N.N.N.N.N.N.N.N.N.N.N.N.N.N.N.N.N.N.N.N.N.N.N.N.N.N.N.N.N.N.N.N.N.N.N.N.N.N.N.N.N.N.N.N.",
"N.N.N.N.N.N.N.N.N.N.N.N.N.N.u.u.u.3.r r n.N.N.N.N.N.N.N.N.N.N.N.b.i i n.N.N.N.N.N.N.N.N.N.N.N.N.N.N.N.N.N.N.N.N.N.N.N.N.N.N.N.N.",
"N.N.N.N.N.N.N.N.N.N.N.N.N.N.u.u.u.2.    c.N.N.N.N.N.N.N.N.N.N.N.x.    c.N.N.N.N.N.N.N.N.N.N.N.N.N.N.N.N.N.N.N.N.N.N.N.N.N.N.N.N.",
"N.N.N.N.N.N.N.N.N.N.N.N.N.N.u.1.h c ....p.9.d.N.N.N.N.N.N.N.e.9.a.....p.9.e.N.N.N.N.N.N.N.N.N.N.N.N.N.N.N.N.N.N.N.N.N.N.N.N.N.N.",
"N.N.N.N.N.N.N.N.N.N.N.N.N.N.N.u   Y [.[.N   d N.N.N.N.N.N.N.y   B [.[.N   u N.N.N.N.N.N.N.N.N.N.N.N.N.N.N.N.N.N.N.N.N.N.N.N.N.N.",
"N.N.N.N.N.N.N.N.N.N.N.N.N.N.N.u   Y [.[.N   d N.N.N.N.N.N.N.y   B [.[.N   u N.N.N.N.N.N.N.N.N.N.N.N.N.N.N.N.N.N.N.N.N.N.N.N.N.N.",
"N.N.N.N.N.N.N.N.N.N.N.N.N.N.N.u   Y [.[.E 7 z i i i i i i i 8 7 ~ [.[.N   u N.N.N.N.N.N.N.N.N.N.u.u.u.u.u.u.u.u.N.N.N.N.N.N.N.N.",
"N.N.N.N.N.N.N.u.u.u.u.u.u.N.N.u   Y [.[./ q 6               7 q ) [.[.N   u N.N.N.N.N.N.N.N.N.N.u.u.u.u.u.u.u.u.u.N.N.N.N.N.N.N.",
"N.N.N.N.N.N.N.u.u.u.u.u.6.0.0.l ; ^ [.[.=.$.] ; ; ; = ; ; ; o.$.=.[.[.G ; k 0.0.M.N.N.N.N.N.N.N.u.u.u.u.u.u.u.u.u.N.N.N.N.N.N.N.",
"N.N.N.N.N.N.N.u.u.u.u.u.j     7 q O.[.[.[.[.P.0 0 0 0 0 0 0 W.[.[.[.[.( q 7     x.N.N.N.N.N.N.N.u.u.u.N.N.N.u.u.u.N.N.N.N.N.N.N.",
"N.N.N.N.N.N.N.N.N.N.N.N.q.    7 q O.[.[.[.[.L.q q q q q q q W.[.[.[.[.( q 7     x.N.N.N.N.N.N.N.N.N.N.N.N.N.N.N.N.N.N.N.N.N.N.N.",
"N.N.N.N.N.N.N.N.N.N.N.N.q.    ;.R.^.[.[.[.[.`.R.R.R.R.R.R.R.`.[.].[.[.~.R.-.    x.N.N.N.N.N.N.N.N.N.N.N.N.N.N.N.N.N.N.N.N.N.N.N.",
"N.N.N.N.N.N.N.N.N.N.N.N.q.    I.[.].].].].].].].].].].].].].[.[.[.[.[.[.[.I.    x.N.N.N.N.N.N.N.N.N.N.N.N.N.N.N.N.N.N.N.N.N.N.N.",
"N.N.N.N.N.N.N.N.N.N.g.w.7.* * Y.[.[.[.[.[.[.[.[.[.[.[.[.[.[.].[.].[.[.].[.Y.* * 8.w.f.N.N.N.N.N.N.N.N.N.N.N.N.N.N.N.N.N.N.N.N.N.",
"N.N.N.N.N.N.N.N.N.N.i   * q q R.[.[.[.[.[.[.[.[.[.[.[.[.[.[.].[.].[.[.].[.R.q q o   y N.N.N.N.N.N.N.N.N.N.N.N.N.N.N.N.N.N.N.N.N.",
"N.N.N.N.N.N.N.N.N.N.i   * q q R.[.[.[.[.[.[.[.[.[.[.[.[.[.[.].[.].[.[.].[.R.q q o   y N.N.N.N.N.N.N.N.N.N.N.N.N.N.N.N.N.N.N.N.N.",
"N.N.N.N.N.N.N.N.N.N.i   K R.R.`.[.J.N N W.[.[.[.[._ N  .[.[.].[.E.N N W.[.`.R.R.b   y N.N.N.N.N.N.N.N.N.N.N.N.N.N.N.N.N.N.N.N.N.",
"N.N.N.N.N.N.N.N.N.N.i   W [.[.[.[.>.    I.[.[.[.[.M   C [.[.[.[.L.    I.[.[.[.[.B   y N.N.N.N.N.N.N.N.N.N.N.N.N.N.N.N.N.N.N.N.N.",
"N.N.N.N.N.N.N.N.N.N.i   W [.[. X.XV.U U !.[.(.>.>.[ U ..>.>.).[.Q.U U C.XX X[.[.B   y N.N.N.N.N.N.N.N.N.N.N.N.N.N.N.N.N.N.N.N.N.",
"N.N.N.N.N.N.N.N.N.N.i   W [.[.S.Z.D.[.[.[.[.H.    U.[.K.    U.[.].[.[.F.A.F.[.[.B   y N.N.N.N.N.N.N.N.N.N.N.N.N.N.N.N.N.N.N.N.N.",
"N.N.N.N.N.N.N.N.N.N.i   W [.[.S.Z.D.[.[.[.[.H.    U.[.K.    U.[.].[.[.F.A.F.[.[.B   y N.N.N.N.N.N.N.N.N.N.N.N.N.N.N.N.N.N.N.N.N.",
"N.N.N.N.N.N.N.t.u u 8 7 @.[.[.}.|.{.[.[.[.[._.I.I.`.[._.I.I.`.[.].[.[.}.|.}.[.[.~ 7 8 u u v.N.N.N.N.N.N.N.N.N.N.N.N.N.N.N.N.N.N.",
"N.N.N.N.N.N.N.0.    7 q #.[.[.[.[.[.[.[.[.[.[.[.[.[.[.[.[.[.].[.].[.[.[.[.[.[.[.) q 7     l.N.N.N.N.N.N.N.N.N.N.N.N.N.N.N.N.N.N.",
"N.N.N.N.N.N.N.0.    7 q #.[.[.[.[.[.[.[.[.[.[.[.[.[.[.[.[.[.].[.].[.[.].[.].[.[.) q 7     l.N.N.N.N.N.N.N.N.N.N.N.N.N.N.N.N.N.N.",
"N.N.N.N.N.N.N.0.    7 q #.[.[.[.[.[.[.[.[.[.[.[.[.[.[.[.[.[.].[.].[.[.].[.].[.[.) q 7     l.N.N.N.N.N.N.N.N.N.N.N.N.N.N.N.N.N.N.",
"N.N.N.N.N.N.N.0.    7 q #.[.[.[.[.[.[.[.[.[.[.[.[.[.[.[.[.[.].[.].[.[.].[.].[.[.) q 7     l.N.N.N.N.N.N.N.N.N.N.N.N.N.N.N.N.N.N.",
"N.N.N.N.N.N.N.0.    ;.W./.[.[.[.[.[.[.[.[.[.[.[.[.[.[.[.[.[.].[.].[.[.[.[.[.[.[.~.W.;.    l.N.N.N.N.N.N.N.N.N.N.N.N.N.N.N.N.N.N.",
"N.N.N.N.N.N.N.0.    I.].[.[.[.[.[.[.[.[.[.[.[.[.[.[.[.[.[.[.].[.].[.[.].[.].[.[.].[.U.    l.N.N.N.N.N.N.N.N.N.N.N.N.N.N.N.N.N.N.",
"N.N.N.N.N.N.N.0.    I.].[.[.[.[.[.[.[.[.[.[.[.[.[.[.[.[.[.[.].[.].[.[.].[.].[.[.].[.U.    l.N.N.N.N.N.N.N.N.N.N.N.N.N.N.N.N.N.N.",
"N.N.N.N.N.N.N.0.    I.].[.[.[.[.[.[.[.[.[.[.[.[.[.[.[.[.[.[.].[.].[.[.[.[.[.[.[.].[.U.    l.N.N.N.N.N.N.N.N.N.N.N.N.N.N.N.N.N.N.",
"N.N.N.N.N.N.N.0.    I.].[.[.[.[.[.[.[.[.[.[.[.[.[.[.[.[.[.[.].[.].[.[.[.[.[.[.[.].[.U.    l.N.N.N.N.N.N.N.N.N.N.N.N.N.N.N.N.N.N.",
"N.N.N.N.N.g y k 7 7 P / &.].].].[.].].].].].].].].].].].].].[.[.[.[.[.[.[.[.[.[.$./ I 7 7 a y f N.N.N.N.N.N.N.N.N.N.N.N.N.N.N.N.",
"N.N.N.N.N.i   ; q q q q #.[.[.[.[.[.[.[.[.[.[.[.[.[.[.[.[.[.[.[.[.[.[.[.[.[.[.[.) q q q q O   y N.N.N.N.N.N.N.N.N.N.N.N.N.N.N.N.",
"N.N.N.N.N.i   ; q q Q ) *.].].].[.].].].].].].].].].].].].].[.[.[.[.[.[.[.[.[.[.%.) ! q q O   y N.N.N.N.N.N.N.N.N.N.N.N.N.N.N.N.",
"N.N.N.N.N.i   ; q q R.[.[.[.[.[.[.[.[.[.[.[.[.[.[.[.[.[.[.[.[.[.[.[.[.[.[.[.[.[.[.[.W.q q O   y N.N.N.N.N.N.N.N.N.N.N.N.N.N.N.N.",
"N.N.N.N.N.i   ; q q R.[.[.[.[.[.[.[.[.[.[.[.[.[.[.[.[.[.[.[.[.[.[.[.[.[.[.[.[.[.[.[.W.q q O   y N.N.N.N.N.N.N.N.N.N.N.N.N.N.N.N.",
"N.N.N.N.N.i   T W.W.`.[.].].].].[.].].].].[.].].].[.].].[.[.[.[.[.[.[.[.[.[.[.[.[.[.'.W.W.m   y N.N.N.N.n.u u u u g N.N.N.N.N.N.",
"N.N.N.N.N.i   ` [.[.[.[.[.[.[.[.[.[.[.[.[.[.[.[.[.[.[.[.[.[.[.[.[.[.[.[.[.[.[.[.[.[.[.[.[.C   y N.N.N.N.c.        u N.N.N.N.N.N.",
"N.N.N.N.N.i   T W.W.R.W./.].].].[.].].].].[.].].].[.].].[.[.[.[.[.[.[.[.[.[.[.[.^.W.W.W.W.m   y u.u.5.4.y.N N N N | c.c.M.N.N.N.",
"N.N.N.N.N.i   ; q q q q #.[.[.[.[.[.[.[.[.[.[.[.[.[.[.[.[.[.[.[.[.[.[.[.[.[.[.[.) q q q q O   w u.u.t   N [.[.[.[.U.    q.N.N.N.",
"N.N.N.N.N.i   ; q q q q #.[.[.[.[.[.[.[.[.[.[.[.[.[.[.[.[.[.[.[.[.[.[.[.[.[.[.[.) q q q q O   w u.u.t   N [.[.[.[.U.    q.N.N.N.",
"N.N.N.N.N.i   ; q q :.T.^.].].].[.].].].].].].].].].].].].].[.[.[.[.[.[.[.[.[.[.~.R.<.q q O   w u.u.n.x.i.V V R ) L     q.N.N.N.",
"N.N.N.N.N.i   ; q q R.[.[.[.[.[.[.[.[.[.[.[.[.[.[.[.[.[.[.[.[.[.[.[.[.[.[.[.[.[.[.[.W.q q O   y N.N.N.N.c.    5 q 7     q.N.N.N.",
"N.N.N.N.N.i   3 / / ~.[.[.[.].W.U.!.[.[.[.[.[.[.[.[.].[.[.[.[.[.[.[.[.Q.Y.Q.[.[.[.[.^./ / :   y N.N.N.N.c.    S / J     q.N.N.N.",
"N.N.N.N.N.i   ` [.[.[.[.[.[.[.N   U [.[.[.[.[.[.[.[.[.[.[.[.[.[.[.[.[.N   N [.[.[.[.[.[.[.C   y N.N.N.N.c.    G.[.U.    q.N.N.N.",
"N.N.N.N.N.i   ` [.[.[.[.[.[.[.N   U [.[.[.[.[.[.[.[.[.[.[.[.[.[.[.[.[.N   N [.[.[.[.[.[.[.C   y N.N.N.N.c.    G.[.U.    q.N.N.N.",
"N.N.N.N.N.i   4 ' ' ~.[.].].].N   U ].]. .C +.].].].].].].].{ Z X.[.[.N   N [.[.[.[.^.' ' >   # p p p p x K.K.).[.U.    q.N.N.N.",
"N.N.N.N.N.i   ; q q R.[.[.[.[.N   U [.[.N   H [.[.[.[.[.[.[.M   B [.[.N   N [.[.[.[.W.q q O             N [.[.[.[.U.    q.N.N.N.",
"N.N.N.N.N.g y k 7 7 :.W./.[.[.N   U [.[.N   F [.[.[.[.[.[.[.M   B [.[.N   N [.[.^.W.,.7 7 n M M M M : X A [.[.~.Y.B.y y f.N.N.N.",
"N.N.N.N.N.N.N.0.    7 q #.].].N   U ].].N   F ].].[.].].[.[.M   B [.[.N   N [.[.) q 7     K.[.[.[.[.} q ( [.[.U   u N.N.N.N.N.N.",
"N.N.N.N.N.N.N.0.    7 q #.[.[.N   U [.[.N   H [.[.[.[.[.[.[.M   B [.[.N   N [.[.) q 7     K.[.[.[.[.} q ( [.[.U   u N.N.N.N.N.N.",
"N.N.N.N.N.N.N.m.h.h.s + 2 H H &   U ].].N   - H H H H H H H %   B [.[.N   & H H < + o     N H H H H 1 + , H H s.h.x.N.N.N.N.N.N.",
"N.N.N.N.N.N.N.N.N.N.i             U [.[.N                       B [.[.N                                       r.N.N.N.N.N.N.N.N.",
"N.N.N.N.N.N.N.N.N.N.g u u u u @   D I.I.9   $ u u u u u u u @   v U.U.9   . e e e e e e e e u u u u u u u u u k.N.N.N.N.N.N.N.N.",
"N.N.N.N.N.N.N.N.N.N.N.N.N.N.N.u             d N.N.N.N.N.N.N.y             e u.u.N.N.N.N.N.N.N.N.N.N.N.N.N.N.N.N.N.N.N.N.N.N.N.N.",
"N.N.N.N.N.N.N.N.N.N.N.N.N.N.N.u             d N.N.N.N.N.N.N.y             u N.N.N.N.N.N.N.N.N.N.N.N.N.N.N.N.N.N.N.N.N.N.N.N.N.N.",
"N.N.N.N.N.N.N.N.N.N.N.N.N.N.N.k.r.r.r.r.r.r.z.N.N.N.N.N.N.N.j.r.r.r.r.r.r.k.N.N.N.N.N.N.N.N.N.N.N.N.N.N.N.N.N.N.N.N.N.N.N.N.N.N.",
"N.N.N.N.N.N.N.N.N.N.N.N.N.N.N.N.N.N.N.N.N.N.N.N.N.N.N.N.N.N.N.N.N.N.N.N.N.N.N.N.N.N.N.N.N.N.N.N.N.N.N.N.N.N.N.N.N.N.N.N.N.N.N.N.",
"N.N.N.N.N.N.N.N.N.N.N.N.N.N.N.N.N.N.N.N.N.N.N.N.N.N.N.N.N.N.N.N.N.N.N.N.N.N.N.N.N.N.N.N.N.N.N.N.N.N.N.N.N.N.N.N.N.N.N.N.N.N.N.N.",
"N.N.N.N.N.N.N.N.N.N.N.N.N.N.N.N.N.N.N.N.N.N.N.N.N.N.N.N.N.N.N.N.N.N.N.N.N.N.N.N.N.N.N.N.N.N.N.N.N.N.N.N.N.N.N.N.N.N.N.N.N.N.N.N.",
"N.N.N.N.N.N.N.N.N.N.N.N.N.N.N.N.N.N.N.N.N.N.N.N.N.N.N.N.N.N.N.N.N.N.N.N.N.N.N.N.N.N.N.N.N.N.N.N.N.N.N.N.N.N.N.N.N.N.N.N.N.N.N.N."
};
